<?xml version="1.0" encoding="UTF-8" standalone="no" ?>
<!DOCTYPE svg PUBLIC "-//W3C//DTD SVG 1.1//EN" "http://www.w3.org/Graphics/SVG/1.1/DTD/svg11.dtd">
<svg xmlns="http://www.w3.org/2000/svg" xmlns:xlink="http://www.w3.org/1999/xlink" version="1.1" width="1280" height="1024" viewBox="0 0 1280 1024" xml:space="preserve">
<desc>Created with Fabric.js 5.3.0</desc>
<defs>
</defs>
<g transform="matrix(4.767404209802977 0 0 4.767404209802977 640.2746114939158 455.1927908504563)" id="logo-logo"  >
<g style=""  paint-order="stroke"   >
		<g transform="matrix(0.26253284527900017 0 0 0.2625328452790002 -4.9781582411206955 0.6213506311595154)"  >
<linearGradient id="SVGID_10_5_5_5_5_813879" gradientUnits="userSpaceOnUse" gradientTransform="matrix(1 0 0 1 0 0)"  x1="939.122" y1="221.7909" x2="939.122" y2="866.635">
<stop offset="0%" style="stop-color:rgb(189,189,189);stop-opacity: 1"/>
<stop offset="100%" style="stop-color:rgb(89,89,89);stop-opacity: 1"/>
</linearGradient>
<path style="stroke: none; stroke-width: 1; stroke-dasharray: none; stroke-linecap: butt; stroke-dashoffset: 0; stroke-linejoin: miter; stroke-miterlimit: 4; fill: url(#SVGID_10_5_5_5_5_813879); fill-rule: nonzero; opacity: 1;"  paint-order="stroke"  transform=" translate(-939.1334366741848, -544.2712774851765)" d="M 971.2 225.5 C 1074.3 207 1113.4 264.7 1113.4 264.7 C 1113.4 264.7 1174.2 284 1209.7 319.2 C 1209.7 319.2 1209.7 319.2 1209.7 319.2 C 1207.2 317.9 1112.9 268.09999999999997 1025.5 284.3 C 936.9 300.7 898.1 404.8 796.5 338.8 C 796.5 338.8 868.1 244 971.2 225.5 z M 705.8 611.2 C 648.0999999999999 543.6 644.0999999999999 437.1 644 434.20000000000005 C 644 434.20000000000005 644 434.20000000000005 644 434.20000000000005 C 631.2 482.50000000000006 644.9 544.8000000000001 644.9 544.8000000000001 C 644.9 544.8000000000001 614.5 607.5000000000001 682 687.6000000000001 C 749.5 767.7000000000002 867.5 782.2000000000002 867.5 782.2000000000002 C 873.9 661.3 764.3 679.8 705.8 611.2 z M 1148.8 724.6 C 1119.1 808.4 1028.8999999999999 865.1 1026.3999999999999 866.7 C 1026.3999999999999 866.7 1026.3999999999999 866.7 1026.3999999999999 866.7 C 1074.6 853.6 1121.6999999999998 810.6 1121.6999999999998 810.6 C 1121.6999999999998 810.6 1191.2999999999997 805.6 1226.7999999999997 707.1 C 1262.3 608.4 1216 499 1216 499 C 1108.1 554 1178.9 639.6 1148.8 724.6 z" stroke-linecap="round" />
</g>
		<g transform="matrix(0.26253284527900017 0 0 0.2625328452790002 5.982813377437992 -1.621350631159487)"  >
<linearGradient id="SVGID_11_6_6_6_6_813880" gradientUnits="userSpaceOnUse" gradientTransform="matrix(1 0 0 1 0 0)"  x1="980.8779" y1="858.2092" x2="980.8779" y2="213.365">
<stop offset="0%" style="stop-color:rgb(89,89,89);stop-opacity: 1"/>
<stop offset="100%" style="stop-color:rgb(189,189,189);stop-opacity: 1"/>
</linearGradient>
<path style="stroke: none; stroke-width: 1; stroke-dasharray: none; stroke-linecap: butt; stroke-dashoffset: 0; stroke-linejoin: miter; stroke-miterlimit: 4; fill: url(#SVGID_11_6_6_6_6_813880); fill-rule: nonzero; opacity: 1;"  paint-order="stroke"  transform=" translate(-980.884294959784, -535.7287225148236)" d="M 1238 392.4 C 1170.4 312.4 1052.5 297.79999999999995 1052.5 297.79999999999995 C 1046.1 418.69999999999993 1155.7 400.29999999999995 1214.2 468.79999999999995 C 1271.9 536.4 1275.9 642.9 1276 645.8 C 1276 645.8 1276 645.8 1276 645.8 C 1288.8 597.5 1275.1 535.1999999999999 1275.1 535.1999999999999 C 1275.1 535.1999999999999 1305.6 472.4 1238 392.4 z M 1123.5 741.2 C 1022 675.2 983.2 779.4000000000001 894.6 795.7 C 807.2 811.9000000000001 712.9000000000001 762.1 710.4000000000001 760.8000000000001 C 710.4000000000001 760.8000000000001 710.4000000000001 760.8000000000001 710.4000000000001 760.8000000000001 C 745.8000000000001 796.0000000000001 806.7 815.3000000000001 806.7 815.3000000000001 C 806.7 815.3000000000001 845.8000000000001 873.0000000000001 948.9000000000001 854.5000000000001 C 1051.9 836 1123.5 741.2 1123.5 741.2 z M 771.2 355.4 C 800.9000000000001 271.59999999999997 891.1 214.89999999999998 893.6 213.29999999999998 C 893.6 213.29999999999998 893.6 213.29999999999998 893.6 213.29999999999998 C 845.4 226.39999999999998 798.3000000000001 269.4 798.3000000000001 269.4 C 798.3000000000001 269.4 728.8000000000001 274.4 693.2 372.9 C 657.7 471.6 704 581 704 581 C 811.9 526 741.1 440.4 771.2 355.4 z" stroke-linecap="round" />
</g>
		<g transform="matrix(0.26253284527900017 0 0 0.2625328452790002 5.808599938503619 9.649381371294396)"  >
<linearGradient id="SVGID_12_7_7_7_7_813881" gradientUnits="userSpaceOnUse" gradientTransform="matrix(1 0 0 1 0 0)"  x1="705.4677" y1="737.3492" x2="1161.5316" y2="281.2852">
<stop offset="0%" style="stop-color:rgb(89,89,89);stop-opacity: 1"/>
<stop offset="100%" style="stop-color:rgb(189,189,189);stop-opacity: 1"/>
</linearGradient>
<path style="stroke: none; stroke-width: 1; stroke-dasharray: none; stroke-linecap: butt; stroke-dashoffset: 0; stroke-linejoin: miter; stroke-miterlimit: 4; fill: url(#SVGID_12_7_7_7_7_813881); fill-rule: nonzero; opacity: 1;"  paint-order="stroke"  transform=" translate(-984.0297549504685, -574.8504255213138)" d="M 806.6 815.3 C 806.6 815.3 945 911.5999999999999 1123.5 741.1999999999999 C 1123.5 741.1999999999999 1117.5 801.9999999999999 995.6 861.8 C 873.7 921.5 808.5 861.5 806.6 815.3 z M 663.5 409.9 C 654.3 545.4 704 581 704 581 C 645.7 341.2 798.3 269.5 798.3 269.5 C 757.3 248.1 672.8 274.5 663.5 409.9 z M 1220.9 348.3 C 1108.2 272.6 1052.5 297.8 1052.5 297.8 C 1289.3 367.20000000000005 1275.1 535.2 1275.1 535.2 C 1314.2 510.5 1333.6 424 1220.9 348.3 z" stroke-linecap="round" />
</g>
		<g transform="matrix(0.26253284527900017 0 0 0.2625328452790002 -5.818651274593719 -9.649381371294396)"  >
<linearGradient id="SVGID_13_8_8_8_8_813882" gradientUnits="userSpaceOnUse" gradientTransform="matrix(1 0 0 1 0 0)"  x1="758.468" y1="798.715" x2="1214.532" y2="342.6511">
<stop offset="0%" style="stop-color:rgb(89,89,89);stop-opacity: 1"/>
<stop offset="100%" style="stop-color:rgb(189,189,189);stop-opacity: 1"/>
</linearGradient>
<path style="stroke: none; stroke-width: 1; stroke-dasharray: none; stroke-linecap: butt; stroke-dashoffset: 0; stroke-linejoin: miter; stroke-miterlimit: 4; fill: url(#SVGID_13_8_8_8_8_813882); fill-rule: nonzero; opacity: 1;"  paint-order="stroke"  transform=" translate(-935.9319590359114, -505.14957447868625)" d="M 1121.7 810.5 C 1121.7 810.5 1274.3 738.8 1216 499 C 1216 499 1265.7 534.6 1256.4 670.1 C 1247.2 805.5 1162.7 831.9 1121.7 810.5 z M 699.1 731.7 C 811.8000000000001 807.4000000000001 867.5 782.2 867.5 782.2 C 630.7 712.8000000000001 644.9 544.8000000000001 644.9 544.8000000000001 C 605.8 569.5 586.4 656 699.1 731.7 z M 924.4 218.2 C 802.5 277.9 796.5 338.79999999999995 796.5 338.79999999999995 C 975 168.39999999999995 1113.4 264.69999999999993 1113.4 264.69999999999993 C 1111.5 218.5 1046.3 158.5 924.4 218.2 z" stroke-linecap="round" />
</g>
</g>
</g>
<g transform="matrix(1.9211538461538462 0 0 1.9211538461538462 638.5041026042743 947.1547874759194)" id="text-logo"  >
<g style=""  paint-order="stroke"   >
		<g transform="matrix(1 0 0 1 0 0)" id="text-logo-path-0"  >
<path style="stroke: none; stroke-width: 0; stroke-dasharray: none; stroke-linecap: butt; stroke-dashoffset: 0; stroke-linejoin: miter; stroke-miterlimit: 4; fill: rgb(89,89,89); fill-rule: nonzero; opacity: 1;"  paint-order="stroke"  transform=" translate(-153.68499999999997, 18.22)" d="M 11.44 0 L 17.67 0 L 17.67 -31.08 C 17.67 -34.15 15.44 -36.39 12.37 -36.39 L 6.34 -36.39 C 3.27 -36.39 1.04 -34.15 1.04 -31.08 L 1.04 0 L 7.28 0 L 7.28 -13.52 L 11.44 -13.52 Z M 7.28 -19.75 L 7.28 -30.15 L 11.44 -30.15 L 11.44 -19.75 Z M 25.52 0 L 39.04 0 L 39.04 -6.24 L 31.76 -6.24 L 31.76 -36.39 L 25.52 -36.39 Z M 46.89 0 L 60.4 0 L 60.4 -6.24 L 53.13 -6.24 L 53.13 -36.39 L 46.89 -36.39 Z M 73.55 0 L 79.58 0 C 82.65 0 84.89 -2.24 84.89 -5.3 L 84.89 -31.08 C 84.89 -34.15 82.65 -36.39 79.58 -36.39 L 73.55 -36.39 C 70.49 -36.39 68.25 -34.15 68.25 -31.08 L 68.25 -5.3 C 68.25 -2.24 70.49 0 73.55 0 Z M 74.49 -6.24 L 74.49 -30.15 L 78.65 -30.15 L 78.65 -6.24 Z M 92.74 -17.26 C 92.74 -14.24 94.92 -12.01 97.93 -11.96 L 97.93 0 L 104.17 0 L 104.17 -11.96 C 107.19 -12.01 109.37 -14.24 109.37 -17.26 L 109.37 -36.39 L 103.13 -36.39 L 103.13 -18.19 L 98.97 -18.19 L 98.97 -36.39 L 92.74 -36.39 Z M 122.52 -16.11 L 127.61 -16.11 L 127.61 -6.24 L 123.46 -6.24 L 123.46 -10.4 L 117.22 -10.4 L 117.22 -5.3 C 117.22 -2.24 119.45 0 122.52 0 L 128.55 0 C 131.62 0 133.85 -2.24 133.85 -5.3 L 133.85 -17.05 C 133.85 -20.12 131.62 -22.35 128.55 -22.35 L 123.46 -22.35 L 123.46 -30.15 L 127.61 -30.15 L 127.61 -25.99 L 133.85 -25.99 L 133.85 -31.08 C 133.85 -34.15 131.62 -36.39 128.55 -36.39 L 122.52 -36.39 C 119.45 -36.39 117.22 -34.15 117.22 -31.08 L 117.22 -21.42 C 117.22 -18.35 119.45 -16.11 122.52 -16.11 Z M 157.87 0 L 164.11 0 L 164.11 -14.5 L 169.2 -14.5 C 172.27 -14.5 174.5 -16.74 174.5 -19.8 L 174.5 -31.14 C 174.5 -34.2 172.27 -36.44 169.2 -36.44 L 157.87 -36.39 Z M 164.11 -20.69 L 164.11 -30.2 L 168.26 -30.25 L 168.26 -20.69 Z M 192.75 -10.92 L 190.62 -6.55 L 188.59 -10.92 L 188.54 -10.92 L 188.59 -36.39 L 182.4 -36.39 L 182.35 -10.92 L 182.4 -10.92 L 187.5 0 L 193.68 0 L 198.93 -10.92 L 198.99 -36.39 L 192.75 -36.39 Z M 212.03 0 L 218.27 0 L 218.27 -30.15 L 223.47 -30.15 L 223.47 -36.39 L 206.83 -36.39 L 206.83 -30.15 L 212.03 -30.15 Z M 247.48 0 L 261 0 L 261 -6.24 L 253.72 -6.24 L 253.72 -36.39 L 247.48 -36.39 Z M 270.41 0 L 276.65 0 L 276.65 -30.15 L 281.84 -30.15 L 281.84 -36.39 L 265.21 -36.39 L 265.21 -30.15 L 270.41 -30.15 Z M 289.69 0 L 301.03 0 C 304.09 0 306.33 -2.24 306.33 -5.3 L 306.33 -31.08 C 306.33 -34.15 304.09 -36.39 301.03 -36.39 L 289.69 -36.39 Z M 295.93 -6.24 L 295.93 -30.15 L 300.09 -30.15 L 300.09 -6.24 Z" stroke-linecap="round" />
</g>
</g>
</g>
<g transform="matrix(1.9211538461538462 0 0 1.9211538461538462 537.3038834165555 409.8288523863748)" id="tagline-7d1cb968-4699-461a-9050-9f3adfff7dd0-logo"  >
<g style=""  paint-order="stroke"   >
		<g transform="matrix(1 0 0 1 0 0)" id="tagline-7d1cb968-4699-461a-9050-9f3adfff7dd0-logo-path-0"  >
<path style="stroke: none; stroke-width: 0; stroke-dasharray: none; stroke-linecap: butt; stroke-dashoffset: 0; stroke-linejoin: miter; stroke-miterlimit: 4; fill: rgb(84,84,85); fill-rule: nonzero; opacity: 1;"  paint-order="stroke"  transform=" translate(-37.975, 32.58)" d="M 48.5 0 L 73.07 0 C 73.63 0 74.09 -0.37 74.09 -0.84 C 74.09 -1.3 73.81 -1.49 73.44 -1.77 C 70.65 -3.54 66.55 -8.28 65.07 -12.19 L 48.31 -57.34 C 46.54 -62.18 42.17 -65.16 37.05 -65.16 L 24.2 -65.16 C 23.46 -65.16 22.9 -64.6 22.9 -63.95 C 22.9 -63.11 23.27 -63.02 23.83 -62.55 C 25.04 -61.62 26.53 -60.13 28.02 -58.46 L 10.89 -12.19 C 9.4 -8.28 5.4 -3.54 2.61 -1.77 C 2.23 -1.49 1.86 -1.3 1.86 -0.84 C 1.86 -0.37 2.33 0 2.98 0 L 18.24 0 C 18.99 0 19.55 -0.65 19.55 -1.4 C 19.55 -2.23 19.18 -2.42 18.62 -2.89 C 15.08 -5.96 18.9 -13.87 21.32 -20.29 L 21.6 -20.94 L 45.05 -20.94 L 45.33 -20.29 C 47.75 -13.87 51.66 -5.96 48.12 -2.89 C 47.57 -2.42 47.19 -2.23 47.19 -1.4 C 47.19 -0.65 47.75 0 48.5 0 Z M 22.9 -24.67 L 33.04 -51.75 C 33.98 -50.08 34.91 -48.4 35.46 -46.82 L 43.75 -24.67 Z" stroke-linecap="round" />
</g>
</g>
</g>
<g transform="matrix(1.9211538461538462 0 0 1.9211538461538462 792.627789596122 409.8288523863748)" id="tagline-02ee086e-ac6a-4a37-92a4-3d50214f20f6-logo"  >
<g style=""  paint-order="stroke"   >
		<g transform="matrix(1 0 0 1 0 0)" id="tagline-02ee086e-ac6a-4a37-92a4-3d50214f20f6-logo-path-0"  >
<path style="stroke: none; stroke-width: 0; stroke-dasharray: none; stroke-linecap: butt; stroke-dashoffset: 0; stroke-linejoin: miter; stroke-miterlimit: 4; fill: rgb(84,84,85); fill-rule: nonzero; opacity: 1;"  paint-order="stroke"  transform=" translate(-37.975, 32.58)" d="M 48.5 0 L 73.07 0 C 73.63 0 74.09 -0.37 74.09 -0.84 C 74.09 -1.3 73.81 -1.49 73.44 -1.77 C 70.65 -3.54 66.55 -8.28 65.07 -12.19 L 48.31 -57.34 C 46.54 -62.18 42.17 -65.16 37.05 -65.16 L 24.2 -65.16 C 23.46 -65.16 22.9 -64.6 22.9 -63.95 C 22.9 -63.11 23.27 -63.02 23.83 -62.55 C 25.04 -61.62 26.53 -60.13 28.02 -58.46 L 10.89 -12.19 C 9.4 -8.28 5.4 -3.54 2.61 -1.77 C 2.23 -1.49 1.86 -1.3 1.86 -0.84 C 1.86 -0.37 2.33 0 2.98 0 L 18.24 0 C 18.99 0 19.55 -0.65 19.55 -1.4 C 19.55 -2.23 19.18 -2.42 18.62 -2.89 C 15.08 -5.96 18.9 -13.87 21.32 -20.29 L 21.6 -20.94 L 45.05 -20.94 L 45.33 -20.29 C 47.75 -13.87 51.66 -5.96 48.12 -2.89 C 47.57 -2.42 47.19 -2.23 47.19 -1.4 C 47.19 -0.65 47.75 0 48.5 0 Z M 22.9 -24.67 L 33.04 -51.75 C 33.98 -50.08 34.91 -48.4 35.46 -46.82 L 43.75 -24.67 Z" stroke-linecap="round" />
</g>
</g>
</g>
<g transform="matrix(1.9211538461538462 0 0 1.9211538461538462 610.3826567279173 483.2606719089492)" id="tagline-34be00c8-9874-4227-a09a-139f5942e295-logo"  >
<g style=""  paint-order="stroke"   >
		<g transform="matrix(1 0 0 1 0 0)" id="tagline-34be00c8-9874-4227-a09a-139f5942e295-logo-path-0"  >
<path style="stroke: none; stroke-width: 0; stroke-dasharray: none; stroke-linecap: butt; stroke-dashoffset: 0; stroke-linejoin: miter; stroke-miterlimit: 4; fill: rgb(84,84,85); fill-rule: nonzero; opacity: 1;"  paint-order="stroke"  transform=" translate(-65.735, 74.24)" d="M 54.44 -9.04 C 39.38 -9.04 32.28 -17.21 32.28 -22.16 C 32.28 -29.91 47.34 -34.21 47.34 -46.48 C 47.34 -59.17 39.59 -66.71 29.05 -66.71 C 16.35 -66.71 4.3 -58.74 4.3 -40.02 C 4.3 -27.76 14.42 2.15 54.44 2.15 C 89.94 2.15 112.54 -21.09 112.54 -54.87 L 112.54 -100.49 C 112.54 -116.41 115.77 -136.85 124.8 -143.96 C 126.1 -145.03 127.17 -145.46 127.17 -147.4 C 127.17 -149.12 125.66 -150.63 123.73 -150.63 L 65.63 -150.63 C 63.91 -150.63 62.62 -149.12 62.62 -147.4 C 62.62 -145.46 63.48 -145.03 64.77 -143.96 C 72.95 -136.85 75.96 -116.41 75.96 -100.49 L 75.96 -37.44 C 75.96 -19.15 69.93 -9.04 54.44 -9.04 Z" stroke-linecap="round" />
</g>
</g>
</g>
</svg>
